<svg width="52" height="52" viewBox="0 0 52 52" fill="none" xmlns="http://www.w3.org/2000/svg">
<path fill-rule="evenodd" clip-rule="evenodd" d="M7.9375 26C7.9375 35.9756 16.0244 44.0625 26 44.0625C35.9756 44.0625 44.0625 35.9756 44.0625 26C44.0625 16.0244 35.9756 7.9375 26 7.9375C16.0244 7.9375 7.9375 16.0244 7.9375 26ZM26 4.75C14.2639 4.75 4.75 14.2639 4.75 26C4.75 37.736 14.2639 47.25 26 47.25C37.736 47.25 47.25 37.736 47.25 26C47.25 14.2639 37.736 4.75 26 4.75ZM27.5938 24.4062H36.625V27.5938H27.5938V36.625H24.4062V27.5938H15.375V24.4062H24.4062V15.375H27.5938V24.4062Z" fill="#FA486B"/>
</svg>
