<svg width="18" height="18" viewBox="0 0 18 18" fill="none" xmlns="http://www.w3.org/2000/svg">
<path fill-rule="evenodd" clip-rule="evenodd" d="M13.0926 13.8881C11.9852 14.8162 10.5579 15.375 9 15.375C5.47919 15.375 2.625 12.5208 2.625 9C2.625 7.4421 3.18383 6.01472 4.11195 4.90738L13.0926 13.8881ZM13.8881 13.0926L4.90745 4.11189C6.01478 3.1838 7.44214 2.625 9 2.625C12.5208 2.625 15.375 5.47919 15.375 9C15.375 10.5579 14.8162 11.9852 13.8881 13.0926ZM16.5 9C16.5 13.1421 13.1421 16.5 9 16.5C4.85786 16.5 1.5 13.1421 1.5 9C1.5 4.85786 4.85786 1.5 9 1.5C13.1421 1.5 16.5 4.85786 16.5 9Z" fill="#FA486B"/>
</svg>
