<svg width="32" height="32" viewBox="-1.5 -1.5 32 32" fill="none" xmlns="http://www.w3.org/2000/svg">
<path fill-rule="evenodd" clip-rule="evenodd" d="M10.643 4.83337L3.89562 11.473C3.72249 11.6433 3.625 11.8761 3.625 12.1189C3.625 12.3618 3.72249 12.5945 3.89562 12.7649L10.643 19.4045L11.9142 18.1126L6.76585 13.0464H18.9076C21.4779 13.0464 23.5614 15.1299 23.5614 17.7002C23.5614 20.2713 21.4766 22.3552 18.9055 22.354L15.723 22.3525L15.7221 24.165L18.9046 24.1665C22.4771 24.1682 25.3739 21.2726 25.3739 17.7002C25.3739 14.129 22.4789 11.2339 18.9076 11.2339H6.72271L11.9142 6.12528L10.643 4.83337Z" fill="#FA486B"/>
</svg>
