<svg width="32" height="32" viewBox="-1 -1 32 32" fill="none" xmlns="http://www.w3.org/2000/svg">
<path fill-rule="evenodd" clip-rule="evenodd" d="M7.9496 8.70416L6.8534 23.6125C6.77348 24.6992 7.63365 25.625 8.72335 25.625H21.2764C22.3661 25.625 23.2262 24.6992 23.1464 23.6125L22.0504 8.70417C22.0264 8.37766 21.7544 8.125 21.427 8.125H11.8752L11.8751 11.25L10.0001 11.2499L10.0002 8.125H8.57291C8.24551 8.125 7.97361 8.37765 7.9496 8.70416ZM10.0003 6.25H8.57291C7.26332 6.25 6.17567 7.26061 6.07965 8.56668L4.98345 23.475C4.82362 25.6485 6.54395 27.5 8.72335 27.5H21.2764C23.4557 27.5 25.1761 25.6485 25.0164 23.475L23.9202 8.5667C23.8242 7.26063 22.7366 6.25 21.427 6.25H19.9944V5.93721C19.9941 4.03885 18.4552 2.5 16.5569 2.5H13.4377C11.5394 2.5 10.0004 4.03894 10.0003 5.93736L10.0003 6.25ZM11.8753 6.25L11.8753 5.93744C11.8753 5.07451 12.5749 4.375 13.4377 4.375H16.5569C17.4197 4.375 18.1192 5.07447 18.1194 5.93737V6.25H11.8753Z" fill="#FA486B"/>
</svg>
