<svg width="16" height="16" viewBox="0 0 16 16" fill="none" xmlns="http://www.w3.org/2000/svg">
<circle cx="7.8262" cy="7.8262" r="7.3262" transform="matrix(-1 0 0 1 15.6523 0)" fill="#5C9A12" stroke="#5C9A12"/>
<path d="M5.37109 10.9567V4.33569H10.2546V5.45327H6.76103V7.01225H8.59236C9.32489 7.01225 9.89777 7.1813 10.311 7.51939C10.7242 7.85122 10.9308 8.33645 10.9308 8.97506C10.9308 9.61368 10.7242 10.1052 10.311 10.4495C9.89777 10.7876 9.32489 10.9567 8.59236 10.9567H5.37109ZM6.76103 9.84847H8.40453C8.79897 9.84847 9.08697 9.77647 9.26854 9.63246C9.45011 9.48846 9.54089 9.26933 9.54089 8.97506C9.54089 8.68706 9.45011 8.47419 9.26854 8.33645C9.08697 8.19244 8.79897 8.12044 8.40453 8.12044H6.76103V9.84847Z" fill="white"/>
</svg>
