<svg width="24" height="24" viewBox="-2 -2 24 24" fill="none" xmlns="http://www.w3.org/2000/svg">
<circle cx="10" cy="10" r="9.5" transform="matrix(-1 0 0 1 20 0)" stroke="#FA486B"/>
<path d="M6.86328 14V5.54004H13.1033V6.96804H8.63928V8.96004H10.9793C11.9153 8.96004 12.6473 9.17604 13.1753 9.60804C13.7033 10.032 13.9673 10.652 13.9673 11.468C13.9673 12.284 13.7033 12.912 13.1753 13.352C12.6473 13.784 11.9153 14 10.9793 14H6.86328ZM8.63928 12.584H10.7393C11.2433 12.584 11.6113 12.492 11.8433 12.308C12.0753 12.124 12.1913 11.844 12.1913 11.468C12.1913 11.1 12.0753 10.828 11.8433 10.652C11.6113 10.468 11.2433 10.376 10.7393 10.376H8.63928V12.584Z" fill="#FA486B"/>
</svg>
