<svg width="24" height="24" viewBox="0.5 0.5 24 24" fill="none" xmlns="http://www.w3.org/2000/svg">
<path fill-rule="evenodd" clip-rule="evenodd" d="M12.9841 7.0101C13.5335 7.0101 13.9841 6.56298 13.9841 6.00505C13.9841 5.44712 13.5335 5 12.9841 5C12.4346 5 11.9841 5.44712 11.9841 6.00505C11.9841 6.56298 12.4346 7.0101 12.9841 7.0101ZM12.9841 8.5101C14.3648 8.5101 15.4841 7.38855 15.4841 6.00505C15.4841 4.62155 14.3648 3.5 12.9841 3.5C11.6033 3.5 10.4841 4.62155 10.4841 6.00505C10.4841 6.7879 10.8424 7.48687 11.4038 7.94624L10.8287 9.78117L9.53765 13.611C9.38503 14.0638 9.63555 14.5245 10.0452 14.6791C11.7935 15.339 12.5759 16.2307 12.8405 17.2944C13.1236 18.433 12.8655 19.9513 12.0815 21.9515L13.478 22.499C14.289 20.4301 14.6964 18.5418 14.2961 16.9324C13.9182 15.4125 12.8634 14.2889 11.153 13.5148L11.8157 11.5489C12.2053 11.8435 12.6839 12.0888 13.2203 12.2591C14.231 12.5802 15.4791 12.6458 16.7958 12.2439L17.3397 14.0112C17.3803 14.1431 17.5202 14.2172 17.6522 14.1766L22.2863 12.7504C22.4183 12.7097 22.4923 12.5698 22.4517 12.4379L20.6768 6.67071C20.6362 6.53875 20.4962 6.4647 20.3643 6.50531L15.7302 7.93153C15.5982 7.97214 15.5241 8.11204 15.5648 8.24401L16.3545 10.8102C15.3375 11.1198 14.4024 11.0608 13.6744 10.8295C13.243 10.6925 12.8953 10.4984 12.6494 10.2965C12.5001 10.1738 12.4027 10.0606 12.342 9.96812L12.8011 8.50349C12.8615 8.50787 12.9225 8.5101 12.9841 8.5101ZM7.24242 17.8716C7.88547 17.5445 8.38058 16.8411 8.75369 15.8222L10.1622 16.3379C9.73847 17.4952 9.06487 18.6276 7.9224 19.2086C6.74806 19.8058 5.28834 19.719 3.53734 18.8959L4.17545 17.5384C5.68861 18.2497 6.63124 18.1824 7.24242 17.8716ZM9.71008 8.92777C8.61126 8.57491 7.4783 8.40596 6.39355 8.63392C5.28495 8.8669 4.30146 9.49899 3.49951 10.6066L4.7145 11.4863C5.31807 10.6526 5.99058 10.2514 6.70205 10.1019C7.43736 9.94733 8.28853 10.0467 9.25146 10.3559L9.71008 8.92777ZM18.4056 12.3753L17.3661 8.99748L19.6108 8.30664L20.6504 11.6844L18.4056 12.3753Z" fill="#FA486B"/>
</svg>
