<svg width="32" height="32" viewBox="0 0 32 32" fill="none" xmlns="http://www.w3.org/2000/svg">
<path fill-rule="evenodd" clip-rule="evenodd" d="M21.466 11.6668L23.9519 14.6298C20.8825 14.5207 17.8871 14.3232 15 14.0354V9.99951H17.8909C19.2704 9.99951 20.5793 10.6099 21.466 11.6668ZM13 9.99951V13.8194C10.7244 13.5543 8.52383 13.2306 6.41603 12.8472L8.30987 10.6826C8.68964 10.2485 9.23834 9.99951 9.8151 9.99951H13ZM30.2351 18.1692C29.9724 16.3178 28.468 14.9175 26.6371 14.7186L22.9981 10.3813C21.7315 8.87149 19.8616 7.99951 17.8909 7.99951H9.8151C8.66156 7.99951 7.56419 8.49751 6.80464 9.36567L3.83207 12.7633C3.81892 12.7783 3.80596 12.7935 3.79319 12.8088C2.95195 13.1537 2.29934 13.9031 2.14007 14.8652L1.38767 19.4112C1.15165 20.8374 1.69752 22.1879 2.68603 23.063C2.88491 25.0862 4.59119 26.6668 6.66667 26.6668C8.3842 26.6668 9.84891 25.5843 10.4157 24.0644H20.2509C20.8177 25.5843 22.2824 26.6668 24 26.6668C25.7176 26.6668 27.1823 25.5843 27.7491 24.0644H27.9997C29.6215 24.0644 30.8677 22.6288 30.64 21.0231L30.2351 18.1692ZM6.66667 18.6668C5.29451 18.6668 4.08371 19.3578 3.36322 20.4107C3.32539 20.1948 3.32268 19.9683 3.36083 19.7378L4.11323 15.1919C4.17339 14.8284 4.5511 14.529 4.99904 14.6159C11.3931 15.857 18.6376 16.5362 26.2329 16.6947C27.2707 16.7163 28.1164 17.474 28.2549 18.4502L28.6597 21.304C28.7168 21.7055 28.4052 22.0644 27.9997 22.0644H27.9549C27.6644 20.1411 26.0044 18.6668 24 18.6668C21.9956 18.6668 20.3356 20.1411 20.0451 22.0644H10.6216C10.3311 20.1411 8.67103 18.6668 6.66667 18.6668ZM6.66667 24.6668C7.77124 24.6668 8.66667 23.7714 8.66667 22.6668C8.66667 21.5623 7.77124 20.6668 6.66667 20.6668C5.5621 20.6668 4.66667 21.5623 4.66667 22.6668C4.66667 23.7714 5.5621 24.6668 6.66667 24.6668ZM24 24.6668C25.1045 24.6668 26 23.7714 26 22.6668C26 21.5623 25.1045 20.6668 24 20.6668C22.8955 20.6668 22 21.5623 22 22.6668C22 23.7714 22.8955 24.6668 24 24.6668Z" fill="#FA486B"/>
</svg>
