<svg width="50" height="41" viewBox="-0.5 0 50 41" fill="none" xmlns="http://www.w3.org/2000/svg">
<path fill-rule="evenodd" clip-rule="evenodd" d="M44.9167 12.7604V5.78353C44.9167 3.12426 42.875 0.910594 40.226 0.696219C40.226 0.695708 40.2209 0.695705 40.2209 0.695705C34.3204 0.231736 28.3996 -0.00101749 22.4583 3.34332e-06C16.5528 0.00102418 10.6371 0.233258 4.69581 0.698758C2.04164 0.912112 0 3.12579 0 5.78557V28.9238C0 31.5876 2.04676 33.8039 4.70603 34.0126C5.51759 34.0764 6.33427 34.1357 7.14583 34.1913C7.14583 34.1908 7.14583 39.8125 7.14583 39.8125C7.14583 40.2275 7.39594 40.6016 7.78385 40.7578C8.16667 40.9145 8.60559 40.8226 8.89653 40.5256L10.9893 38.3838C13.327 35.9915 16.5375 34.6583 19.8807 34.6935C20.7382 34.7037 21.6008 34.7083 22.4583 34.7083C23.3107 34.7083 24.1682 34.7032 25.0206 34.6935C25.5872 34.6869 26.0364 34.2245 26.0313 33.661C26.0261 33.0975 25.5617 32.6452 25.0002 32.6519C24.1529 32.6616 23.3056 32.6667 22.4583 32.6667C21.6059 32.6667 20.7535 32.6621 19.9063 32.6519H19.9011C16.0016 32.611 12.2551 34.1663 9.52944 36.9572L9.1875 37.3058V33.2353C9.1875 32.6963 8.7689 32.2507 8.23296 32.2165C7.11004 32.145 5.9872 32.0649 4.86429 31.9771C3.27179 31.852 2.04167 30.5224 2.04167 28.9238C2.04167 23.0356 2.04167 11.6748 2.04167 5.78609V5.78557C2.04167 4.19001 3.26668 2.86241 4.85918 2.73379C10.7443 2.27288 16.609 2.04269 22.4583 2.04167C28.3434 2.04065 34.2132 2.27136 40.0626 2.73125C41.65 2.86039 42.875 4.18848 42.875 5.78353V12.7604C42.875 13.3239 43.3344 13.7813 43.8958 13.7813C44.4573 13.7813 44.9167 13.3239 44.9167 12.7604ZM37.2604 13.8374C32.6667 14.3453 29.0938 18.2397 29.0938 22.9688V31.5208C28.9764 31.6142 28.8641 31.7142 28.7569 31.8209C27.9913 32.5865 27.5625 33.6252 27.5625 34.7083V35.7292C27.5625 36.2932 28.0168 36.75 28.5833 36.75H34.1979C34.1979 37.8331 34.6267 38.8718 35.3923 39.6374C36.158 40.4031 37.1992 40.8333 38.2813 40.8333C39.3633 40.8333 40.4045 40.4031 41.1702 39.6374C41.9358 38.8718 42.3646 37.8331 42.3646 36.75H47.9792C48.5457 36.75 49 36.2932 49 35.7292V34.7083C49 33.6252 48.5712 32.5865 47.8056 31.8209C47.6984 31.7142 47.5861 31.6142 47.4688 31.5208V22.9688C47.4688 20.532 46.499 18.1953 44.7788 16.4722C43.2986 14.9915 41.3642 14.0686 39.3021 13.8379V13.2708C39.3021 12.7073 38.8427 12.25 38.2813 12.25C37.7198 12.25 37.2604 12.7073 37.2604 13.2708V13.8374ZM40.3229 36.75C40.3229 37.2916 40.1086 37.8107 39.7258 38.1935C39.343 38.5768 38.8223 38.7917 38.2813 38.7917C37.7402 38.7917 37.2195 38.5768 36.8367 38.1935C36.4539 37.8107 36.2396 37.2916 36.2396 36.75H40.3229ZM29.6042 34.7083H46.9583C46.9583 34.1668 46.744 33.6477 46.3612 33.2649C45.9784 32.8816 45.4577 32.6667 44.9167 32.6667C41.2876 32.6667 35.2749 32.6667 31.6458 32.6667C31.1048 32.6667 30.5841 32.8816 30.2013 33.2649C29.8185 33.6477 29.6042 34.1668 29.6042 34.7083ZM45.4271 30.6572V22.9688C45.4271 21.0736 44.6767 19.256 43.3343 17.9161C41.9919 16.5758 40.1749 15.8229 38.2813 15.8229C34.3357 15.8229 31.1354 19.0222 31.1354 22.9688V30.6572C31.3039 30.6357 31.4723 30.625 31.6458 30.625H44.9167C45.0902 30.625 45.2586 30.6357 45.4271 30.6572ZM11.2292 23.9896H22.4583C23.0198 23.9896 23.4792 23.5323 23.4792 22.9688C23.4792 22.4053 23.0198 21.9479 22.4583 21.9479H11.2292C10.6677 21.9479 10.2083 22.4053 10.2083 22.9688C10.2083 23.5323 10.6677 23.9896 11.2292 23.9896ZM11.2292 18.375H28.0729C28.6344 18.375 29.0938 17.9177 29.0938 17.3542C29.0938 16.7907 28.6344 16.3333 28.0729 16.3333H11.2292C10.6677 16.3333 10.2083 16.7907 10.2083 17.3542C10.2083 17.9177 10.6677 18.375 11.2292 18.375ZM11.2292 12.7604H33.6875C34.249 12.7604 34.7083 12.3031 34.7083 11.7396C34.7083 11.1761 34.249 10.7188 33.6875 10.7188H11.2292C10.6677 10.7188 10.2083 11.1761 10.2083 11.7396C10.2083 12.3031 10.6677 12.7604 11.2292 12.7604Z" fill="#FA486B"/>
</svg>
