<svg width="50" height="47" viewBox="-0.5 0 50 47" fill="none" xmlns="http://www.w3.org/2000/svg">
<path d="M45.478 3.72024L22.7007 1.04315C19.9827 0.713093 17.4944 2.58339 17.1499 5.18714L16.078 13.0717C16.0014 13.6585 16.4225 14.2086 17.0733 14.3186C17.7241 14.3919 18.26 13.9885 18.3749 13.3651L19.4468 5.44385C19.6382 4.05029 20.978 3.02346 22.4327 3.20682L45.2483 5.88392C45.9757 5.95726 46.5882 6.32399 47.0475 6.8374C47.5069 7.38749 47.6983 8.04759 47.5835 8.74437L43.3725 41.4929C43.1811 42.8865 41.8413 43.9133 40.3866 43.7299L17.571 41.0895C16.8436 41.0162 16.2311 40.6494 15.7718 40.136C15.3124 39.5859 15.121 38.9258 15.2358 38.2291L16.078 31.298C16.1546 30.7112 15.6952 30.1611 15.0827 30.0878C14.4702 30.0144 13.896 30.4545 13.8194 31.0412L12.9772 37.9357C12.8241 39.1825 13.1686 40.4661 14.0108 41.4562C14.8147 42.4464 16.0014 43.1065 17.3413 43.2532L40.1569 45.9303C40.3483 45.967 40.578 45.967 40.7694 45.967C43.2577 45.967 45.4014 44.2067 45.7077 41.7863L49.9186 9.03775C50.0718 7.79089 49.7272 6.50735 48.885 5.51719C48.0046 4.52703 46.8179 3.86693 45.478 3.72024Z" fill="#FA486B"/>
<path d="M28.6341 29.0974C29.0552 29.2074 29.5529 29.2807 30.0505 29.2807C34.1083 29.2807 40.9224 25.8702 42.4154 21.1394C43.3724 18.1323 41.6115 14.9418 38.4724 13.9883C36.5966 13.4382 34.6443 13.8416 33.1513 14.8684C33.0365 14.575 32.9216 14.3183 32.7685 14.0616C32.0029 12.7047 30.7779 11.7146 29.2466 11.2745C26.1076 10.3577 22.7771 12.0446 21.7818 15.0518C20.7099 18.3523 22.2412 21.9095 23.2748 23.7065C24.8443 26.4936 26.9115 28.5839 28.6341 29.0974ZM24.0404 15.7486C24.538 14.245 25.9927 13.2548 27.5623 13.2548C27.9068 13.2548 28.2896 13.2915 28.6341 13.4015C29.5529 13.6582 30.3568 14.2817 30.8162 15.1251C31.2755 15.9686 31.3904 16.8854 31.0841 17.8022C31.0076 17.9122 31.0076 18.0223 31.0076 18.0956C31.0076 18.5724 31.3138 19.0124 31.8115 19.1591C32.424 19.3425 33.0748 19.0124 33.2279 18.4257C33.8021 16.5554 35.8693 15.5285 37.8216 16.0786C39.7357 16.6287 40.8458 18.609 40.2716 20.4793C38.8552 24.8433 31.3904 27.5938 29.3232 26.9704C28.4044 26.7136 26.6818 25.1001 25.3802 22.7163C23.9255 20.1493 23.4279 17.6189 24.0404 15.7486Z" fill="#FA486B"/>
<path d="M16.8438 46.5902C17.4945 46.5902 17.9922 46.1134 17.9922 45.49C17.9922 44.8666 17.4945 44.3898 16.8438 44.3898H5.35938C3.86641 44.3898 2.67969 43.253 2.67969 41.8227V5.15024C2.67969 3.72001 3.86641 2.58316 5.35938 2.58316H15.3125C15.9633 2.58316 16.4609 2.10642 16.4609 1.48299C16.4609 0.859555 15.9633 0.382812 15.3125 0.382812H5.35938C2.60313 0.382812 0.382812 2.50982 0.382812 5.15024V41.8227C0.382812 44.4632 2.60313 46.5902 5.35938 46.5902H16.8438Z" fill="#FA486B"/>
<path d="M19.9828 19.0858C19.868 18.499 19.2555 18.0956 18.643 18.2056C14.5469 18.9391 10.4508 19.9659 6.46955 21.1761C5.85705 21.3594 5.5508 21.9829 5.7422 22.5696C5.89533 23.0464 6.3547 23.3398 6.85236 23.3398C6.9672 23.3398 7.08205 23.3398 7.19689 23.3031C11.1016 22.1296 15.0828 21.1394 19.1024 20.406C19.6766 20.2593 20.0977 19.7092 19.9828 19.0858Z" fill="#FA486B"/>
<path d="M17.9537 23.3764C15.5803 23.8898 13.2068 24.4766 10.91 25.1C10.2975 25.2467 9.95292 25.8701 10.106 26.4569C10.2592 26.9336 10.7185 27.2637 11.2162 27.2637C11.331 27.2637 11.4076 27.2637 11.5225 27.227C13.8193 26.6036 16.1545 26.0535 18.4896 25.5401C19.1021 25.3934 19.485 24.8066 19.3701 24.2199C19.1787 23.6331 18.5662 23.2664 17.9537 23.3764Z" fill="#FA486B"/>
</svg>
