<svg width="50" height="50" viewBox="-0.5 -0.5 50 50" fill="none" xmlns="http://www.w3.org/2000/svg">
<path d="M48.4894 38.3015V26.0618V19.5488C48.4894 17.5276 46.8459 15.884 44.8246 15.884H35.29C35.29 15.7922 35.3003 15.7105 35.3003 15.6186C35.3003 7.29884 28.5321 0.520508 20.2021 0.520508C11.8721 0.520508 5.11421 7.27842 5.11421 15.6084C5.11421 15.7003 5.12442 15.7922 5.12442 15.8738H4.17505C2.1538 15.8738 0.510254 17.5174 0.510254 19.5386V44.8145C0.510254 46.8357 2.1538 48.4793 4.17505 48.4793H44.8144C46.8357 48.4793 48.4792 46.8357 48.4792 44.8145V38.3015H48.4894ZM46.4478 36.2599H35.4023C33.1565 36.2599 31.319 34.4326 31.319 32.1765C31.319 29.9205 33.1463 28.0932 35.4023 28.0932H46.4478V36.2599ZM20.2123 2.55197C27.4092 2.55197 33.2688 8.41155 33.2688 15.6084C33.2688 22.8053 27.4092 28.6547 20.2123 28.6547C13.0155 28.6547 7.15588 22.8053 7.15588 15.6084C7.15588 8.41155 13.0155 2.55197 20.2123 2.55197ZM44.8246 46.4478H4.17505C3.27671 46.4478 2.55192 45.723 2.55192 44.8247V19.5386C2.55192 18.6403 3.27671 17.9155 4.17505 17.9155H5.30817C6.43109 25.143 12.6684 30.6963 20.2021 30.6963C27.7359 30.6963 33.9834 25.143 35.0961 17.9155H44.8144C45.7128 17.9155 46.4375 18.6403 46.4375 19.5386V26.0515H35.4023C32.0234 26.0515 29.2773 28.7976 29.2773 32.1765C29.2773 35.5555 32.0234 38.3015 35.4023 38.3015H46.4478V44.8145C46.4478 45.723 45.723 46.4478 44.8246 46.4478Z" fill="#FA486B"/>
<path d="M33.9937 32.1764C33.9937 32.9522 34.6164 33.5749 35.3922 33.5749C36.168 33.5749 36.7907 32.9522 36.7907 32.1764C36.7907 31.4005 36.168 30.7778 35.3922 30.7778C34.6164 30.7778 33.9937 31.4107 33.9937 32.1764Z" fill="#FA486B"/>
<path d="M15.7002 25.592H17.7418V21.2738H25.3164V19.2322H17.7418V16.7413H22.3254C25.3879 16.7413 27.8889 14.2505 27.8889 11.1778C27.8889 8.10509 25.3981 5.61426 22.3356 5.61426H15.7104V14.6997H11.7598V16.7413H15.7104V19.222H11.7598V21.2636H15.7104V25.592H15.7002ZM17.7418 7.65592H22.3254C24.265 7.65592 25.8473 9.23822 25.8473 11.1778C25.8473 13.1174 24.265 14.6997 22.3254 14.6997H17.7418V7.65592Z" fill="#FA486B"/>
</svg>
