<svg width="50" height="42" viewBox="-0.5 0 50 42" fill="none" xmlns="http://www.w3.org/2000/svg">
<path d="M24.4998 18.4526C21.2767 18.4526 18.6533 21.0743 18.6533 24.2991C18.6533 24.8771 19.1224 25.3461 19.7003 25.3461C20.2783 25.3461 20.7473 24.8771 20.7473 24.2991C20.7473 22.2302 22.4309 20.5467 24.4998 20.5467C25.0778 20.5467 25.5468 20.0776 25.5468 19.4996C25.5468 18.9217 25.0778 18.4526 24.4998 18.4526Z" fill="#FA486B"/>
<path d="M40.7831 6.66735H34.6669L34.2162 3.32195C33.9616 1.39713 32.3635 0 30.4135 0H18.5865C16.6382 0 15.0401 1.39713 14.7838 3.3186L14.3331 6.66735H13.3481V5.44444C13.3481 4.03559 12.2006 2.88807 10.7917 2.88807H8.34591C6.93706 2.88807 5.78954 4.03559 5.78954 5.44444V7.07443C2.44749 8.11641 0 11.2038 0 14.8843V16.2579V32.34V33.7137C0 38.2451 3.68547 41.9306 8.21692 41.9306H40.7831C45.3145 41.9306 49 38.2435 49 33.7137V32.34V16.2579V14.8843C49 10.3545 45.3145 6.66735 40.7831 6.66735ZM40.7831 8.76137C44.1603 8.76137 46.906 11.5087 46.906 14.8843V15.2109H35.8161L34.9483 8.76137H40.7831ZM46.906 31.293H36.2851C37.508 29.2409 38.2233 26.8554 38.2233 24.299C38.2233 21.7426 37.508 19.3571 36.2851 17.305H46.906V31.293ZM2.09402 17.305H12.7149C11.4936 19.3554 10.7766 21.7426 10.7766 24.299C10.7766 26.8554 11.492 29.2425 12.7149 31.293H2.09402V17.305ZM12.8723 24.299C12.8723 17.8863 18.089 12.6713 24.5 12.6713C30.911 12.6713 36.1277 17.8879 36.1277 24.299C36.1277 30.71 30.911 35.9283 24.5 35.9283C18.0873 35.9283 12.8723 30.71 12.8723 24.299ZM18.5865 2.09402H30.4135C31.298 2.09402 32.0234 2.72557 32.139 3.59836L33.5411 14.0031C31.1238 11.8773 27.9643 10.5756 24.5 10.5756C21.0357 10.5756 17.8762 11.8756 15.4589 14.0014L16.8594 3.59668C16.9749 2.72557 17.702 2.09402 18.5865 2.09402ZM7.88356 5.44444C7.88356 5.18981 8.09128 4.98209 8.34591 4.98209H10.7917C11.0464 4.98209 11.2541 5.18981 11.2541 5.44444V6.66065H7.88356V5.44444ZM8.21692 8.76137H14.0517L13.1823 15.2109H2.09402V14.8843C2.09402 11.507 4.84137 8.76137 8.21692 8.76137ZM40.7831 39.8366H8.21692C4.84137 39.8366 2.09402 37.0892 2.09402 33.7137V33.387H14.246C16.7622 36.2215 20.4209 38.0223 24.5 38.0223C28.5791 38.0223 32.2378 36.2231 34.754 33.387H46.906V33.7137C46.906 37.0892 44.1586 39.8366 40.7831 39.8366Z" fill="#FA486B"/>
<path d="M24.5 33.3818C29.5072 33.3818 33.583 29.306 33.583 24.2988C33.583 19.2916 29.5072 15.2158 24.5 15.2158C19.4911 15.2158 15.417 19.2899 15.417 24.2988C15.417 29.3077 19.4911 33.3818 24.5 33.3818ZM24.5 17.3098C28.3547 17.3098 31.489 20.4458 31.489 24.2988C31.489 28.1535 28.3547 31.2878 24.5 31.2878C20.647 31.2878 17.511 28.1518 17.511 24.2988C17.511 20.4442 20.647 17.3098 24.5 17.3098Z" fill="#FA486B"/>
<path d="M21.0509 9.12471H27.9477C29.4873 9.12471 30.7403 7.87165 30.7403 6.33213C30.7403 4.79261 29.4873 3.53955 27.9477 3.53955H21.0509C19.5114 3.53955 18.2583 4.79261 18.2583 6.33213C18.2583 7.87165 19.5114 9.12471 21.0509 9.12471ZM21.0509 5.63357H27.9477C28.3314 5.63357 28.6463 5.94683 28.6463 6.33213C28.6463 6.71743 28.3314 7.0307 27.9477 7.0307H21.0509C20.6656 7.0307 20.3523 6.71743 20.3523 6.33213C20.3523 5.94683 20.6656 5.63357 21.0509 5.63357Z" fill="#FA486B"/>
</svg>
