<svg width="24" height="24" viewBox="0 0.5 24 24" fill="none" xmlns="http://www.w3.org/2000/svg">
<path fill-rule="evenodd" clip-rule="evenodd" d="M19.0532 5.9333C19.1972 5.38346 19.694 5 20.2624 5H22V3.5H20.2624C19.012 3.5 17.9189 4.34362 17.6021 5.55326L17.0923 7.5H3.75001C3.51668 7.5 3.29665 7.60859 3.15472 7.79379C3.01279 7.97898 2.96514 8.21968 3.02579 8.44498L4.17808 12.7249C4.61889 14.3622 6.10354 15.5 7.79914 15.5H14.4251C15.6756 15.5 16.7686 14.6564 17.0854 13.4467L19.0532 5.9333ZM4.72864 9H16.6994L15.6343 13.0667C15.4903 13.6165 14.9935 14 14.4251 14H7.79914C6.78178 14 5.89099 13.3173 5.62651 12.3349L4.72864 9ZM6.5 20C7.05228 20 7.5 19.5523 7.5 19C7.5 18.4477 7.05228 18 6.5 18C5.94771 18 5.5 18.4477 5.5 19C5.5 19.5523 5.94771 20 6.5 20ZM6.5 21.5C7.88071 21.5 9 20.3807 9 19C9 17.6193 7.88071 16.5 6.5 16.5C5.11929 16.5 4 17.6193 4 19C4 20.3807 5.11929 21.5 6.5 21.5ZM15.5 20C16.0523 20 16.5 19.5523 16.5 19C16.5 18.4477 16.0523 18 15.5 18C14.9477 18 14.5 18.4477 14.5 19C14.5 19.5523 14.9477 20 15.5 20ZM15.5 21.5C16.8807 21.5 18 20.3807 18 19C18 17.6193 16.8807 16.5 15.5 16.5C14.1193 16.5 13 17.6193 13 19C13 20.3807 14.1193 21.5 15.5 21.5Z" fill="#FA486B"/>
</svg>
