<svg width="20" height="20" viewBox="0 0 20 20" fill="none" xmlns="http://www.w3.org/2000/svg">
<path fill-rule="evenodd" clip-rule="evenodd" d="M14.3842 3.9921L13.253 5.12391L14.8713 6.74319L16.0056 5.60837C16.3303 5.28343 16.3303 4.75747 16.0056 4.43254L15.5653 3.9921C15.2394 3.666 14.7101 3.66599 14.3842 3.9921ZM7.20637 11.1738L12.3693 6.00803L13.9878 7.62731L8.82208 12.7957C8.74383 12.874 8.63758 12.918 8.52675 12.918H7.08458L7.08457 11.4677C7.08458 11.3575 7.12838 11.2518 7.20637 11.1738ZM8.52675 14.1668C8.97 14.1668 9.395 13.9908 9.70792 13.6776L16.8915 6.49025C17.7034 5.6779 17.7033 4.363 16.8914 3.55065L16.4513 3.11023C15.6364 2.29497 14.3131 2.29496 13.4983 3.11022L6.32048 10.2919C6.00852 10.604 5.83333 11.0269 5.83333 11.4677V13.7505C5.83333 13.9804 6.02007 14.1668 6.25042 14.1668H8.52675ZM5 3.75009H10V2.50009H5C3.61929 2.50009 2.5 3.61938 2.5 5.00009V15.0001C2.5 16.3808 3.61929 17.5001 5 17.5001H15C16.3808 17.5001 17.5 16.3808 17.5 15.0001V10.0001H16.25V15.0001C16.25 15.6904 15.6903 16.2501 15 16.2501H5C4.30964 16.2501 3.75 15.6904 3.75 15.0001V5.00009C3.75 4.30974 4.30964 3.75009 5 3.75009Z" fill="#FA486B"/>
</svg>
