<svg width="24" height="24" viewBox="-4 -4 24 24" fill="none" xmlns="http://www.w3.org/2000/svg">
<path fill-rule="evenodd" clip-rule="evenodd" d="M2.33337 4.98183V11.3337C2.33337 11.8859 2.78109 12.3337 3.33337 12.3337H12.6667C13.219 12.3337 13.6667 11.8859 13.6667 11.3337V4.98183L8.33717 9.84873C8.14624 10.0231 7.85384 10.0231 7.66291 9.84873L2.33337 4.98183ZM13.6236 3.66699H2.37651L8.00004 8.80239L13.6236 3.66699ZM1.33337 3.33366C1.33337 2.96547 1.63185 2.66699 2.00004 2.66699H14C14.3682 2.66699 14.6667 2.96547 14.6667 3.33366V11.3337C14.6667 12.4383 13.7713 13.3337 12.6667 13.3337H3.33337C2.22881 13.3337 1.33337 12.4383 1.33337 11.3337V3.33366Z" fill="#FA486B"/>
</svg>
