<svg width="25" height="24" viewBox="0 0 25 24" fill="none" xmlns="http://www.w3.org/2000/svg">
<path fill-rule="evenodd" clip-rule="evenodd" d="M7.6001 14.5C8.70467 14.5 9.6001 15.3954 9.6001 16.5C9.6001 17.6046 8.70467 18.5 7.6001 18.5C6.49553 18.5 5.6001 17.6046 5.6001 16.5C5.6001 15.3954 6.49553 14.5 7.6001 14.5ZM11.1001 16.5C11.1001 14.8244 9.92269 13.4239 8.3501 13.0805V2.00004H6.8501V13.0805C5.27751 13.4239 4.1001 14.8244 4.1001 16.5C4.1001 18.1756 5.27751 19.5761 6.8501 19.9195V22H8.3501V19.9195C9.92269 19.5761 11.1001 18.1756 11.1001 16.5ZM14.8501 10.9195V22H16.3501V10.9195C17.9227 10.5761 19.1001 9.17556 19.1001 7.5C19.1001 5.82444 17.9227 4.42388 16.3501 4.08055V2H14.8501V4.08055C13.2775 4.42388 12.1001 5.82444 12.1001 7.5C12.1001 9.17556 13.2775 10.5761 14.8501 10.9195ZM15.6001 5.5C16.7047 5.5 17.6001 6.39543 17.6001 7.5C17.6001 8.60457 16.7047 9.5 15.6001 9.5C14.4955 9.5 13.6001 8.60457 13.6001 7.5C13.6001 6.39543 14.4955 5.5 15.6001 5.5Z" fill="#FA486B"/>
</svg>
