<svg width="48" height="48" viewBox="-4.5 -4.5 48 48" fill="none" xmlns="http://www.w3.org/2000/svg">
<g clip-path="url(#clip0_3001_8684)">
<path d="M20.9788 26.9938V22.2428C20.5616 22.3585 20.1291 22.4374 19.6755 22.4374C19.1581 22.4374 18.6642 22.3443 18.1955 22.195V26.9931C16.7254 23.5741 14.8674 20.97 13.1527 19.0547C12.9165 19.0949 12.6776 19.1229 12.4341 19.1229C12.1246 19.1229 11.8169 19.0893 11.5164 19.0229C11.3353 19.591 11.03 20.1001 10.6465 20.5389C13.5464 23.8366 17.2269 29.55 18.1082 37.9899C18.1682 38.563 18.6515 39 19.228 39H19.9457C20.524 39 21.0062 38.5643 21.0654 37.9892C21.7469 31.4287 24.0839 26.5457 26.4466 23.1427C25.4165 23.1137 24.4451 22.7131 23.6952 22.0409C22.7312 23.4608 21.7941 25.0976 20.9788 26.9938Z" fill="#FA486B"/>
<path d="M37.7732 16.8197C37.3421 16.5706 36.4263 16.2229 35.4263 15.9522C36.4262 15.6809 37.3415 15.3337 37.7728 15.0847C38.8936 14.437 39.2777 13.004 38.6306 11.883C38.1967 11.1316 37.4089 10.7112 36.5994 10.7112C36.2015 10.7112 35.7982 10.8124 35.4289 11.0259C34.9977 11.2742 34.2391 11.8927 33.5061 12.6213C33.771 11.6215 33.9265 10.6551 33.9265 10.1578C33.9265 8.863 32.8788 7.81396 31.5839 7.81396C31.2641 7.81396 30.9597 7.87898 30.682 7.99483C30.4212 8.86927 29.9395 9.64221 29.2727 10.2406C30.4287 11.2812 30.9893 12.8049 30.8581 14.3177C31.08 14.2191 31.3242 14.1619 31.5826 14.1619C32.5717 14.1619 33.3736 14.9638 33.3736 15.9522C33.3736 16.9401 32.5717 17.7425 31.5826 17.7425C30.8739 17.7425 30.2667 17.3265 29.9767 16.7289C29.0625 18.0079 27.5777 18.7915 25.9869 18.7915C25.4731 18.7915 24.9615 18.7093 24.4742 18.5509C24.4233 18.7911 24.347 19.0214 24.2622 19.2472C24.3079 19.5125 24.3922 19.7752 24.5347 20.022C24.9684 20.7736 25.7564 21.1939 26.5659 21.1939C26.9638 21.1939 27.3671 21.0927 27.7357 20.8793C28.1682 20.6302 28.9281 20.0099 29.6624 19.28C29.3968 20.2806 29.2403 21.2487 29.2403 21.7473C29.2403 23.0415 30.2891 24.0905 31.584 24.0905C32.8788 24.0905 33.9265 23.0415 33.9265 21.7473C33.9265 21.2494 33.7711 20.2819 33.5055 19.2813C34.2392 20.0112 34.9984 20.6302 35.429 20.8793C35.7983 21.0927 36.2016 21.1939 36.599 21.1939C37.4097 21.1939 38.1968 20.7736 38.6314 20.022C39.2784 18.9003 38.8942 17.4674 37.7732 16.8197Z" fill="#FA486B"/>
<path d="M8.62228 7.86457C8.30757 6.69278 8.45252 5.47929 8.99258 4.40488C8.57622 4.02483 8.02719 3.78711 7.41855 3.78711C6.12433 3.78711 5.07529 4.83607 5.07529 6.13028C5.07529 6.62887 5.23206 7.59569 5.49689 8.59628C4.76257 7.86639 4.00271 7.24688 3.57151 6.99766C3.20288 6.78436 2.7996 6.68382 2.40235 6.68303C1.59221 6.68303 0.804365 7.10344 0.369842 7.85561C-0.27774 8.97656 0.106195 10.4096 1.22787 11.0566C1.65953 11.3058 2.57481 11.6541 3.57476 11.9248C2.57425 12.1954 1.65898 12.5432 1.22715 12.7922C0.106195 13.4406 -0.278453 14.8735 0.369366 15.9946C0.803096 16.7462 1.5915 17.167 2.40179 17.167C2.7992 17.167 3.20225 17.0658 3.57112 16.8524C4.00278 16.6028 4.76264 15.9831 5.49769 15.2525C5.23206 16.2536 5.07537 17.2212 5.07537 17.7198C5.07537 19.014 6.12433 20.0636 7.41862 20.0636C8.71331 20.0636 9.76164 19.014 9.76164 17.7198C9.76164 17.5725 9.74403 17.3751 9.71795 17.1569C9.49204 16.9061 9.2835 16.6376 9.11152 16.3396C8.59532 15.4462 8.41057 14.458 8.48852 13.4996C8.18316 13.7079 7.81469 13.8303 7.41736 13.8303C6.36578 13.8303 5.51362 12.9762 5.51362 11.9254C5.51362 10.8739 6.36578 10.0197 7.41736 10.0197C8.25032 10.0197 8.95087 10.5584 9.20968 11.3033C9.44907 10.9172 9.73008 10.5533 10.077 10.2408C9.37628 9.61281 8.87134 8.79443 8.62228 7.86457Z" fill="#FA486B"/>
<path d="M10.8056 15.3609C11.3522 16.3067 12.3432 16.8359 13.3623 16.8359C13.8629 16.8359 14.3704 16.7079 14.8347 16.4397C15.3774 16.1263 16.334 15.3461 17.2582 14.427C16.9246 15.6875 16.727 16.9046 16.727 17.532C16.727 19.16 18.0473 20.4807 19.6758 20.4807C21.3051 20.4807 22.6241 19.16 22.6241 17.532C22.6241 16.9052 22.4278 15.6887 22.0941 14.429C23.0175 15.3475 23.9731 16.1263 24.515 16.4396C24.9792 16.7078 25.4869 16.8351 25.9869 16.8351C27.0065 16.8351 27.9976 16.3066 28.5434 15.3608C29.3579 13.95 28.8746 12.1469 27.4638 11.3317C26.9212 11.0184 25.7691 10.5814 24.5119 10.2407C25.7691 9.89871 26.9205 9.46173 27.4632 9.14837C28.8733 8.33372 29.3574 6.52997 28.5427 5.11999C27.9969 4.17419 27.006 3.64555 25.9869 3.64555C25.4869 3.64555 24.9792 3.77289 24.5144 4.04098C23.9724 4.35371 23.0176 5.13205 22.0948 6.04922C22.4278 4.79069 22.6241 3.5749 22.6241 2.94936C22.6241 1.3203 21.3051 0 19.6758 0C18.0473 0 16.727 1.3203 16.727 2.94936C16.727 3.57553 16.9246 4.79267 17.2575 6.05168C16.3341 5.13331 15.378 4.35371 14.8354 4.04035C14.371 3.77234 13.8635 3.64484 13.3634 3.64484C12.3437 3.64484 11.3528 4.17356 10.8063 5.11991C9.99177 6.52989 10.4758 8.33364 11.8865 9.14765C12.4292 9.46102 13.5813 9.89863 14.8392 10.2399C13.5806 10.5806 12.4285 11.0182 11.8859 11.3315C10.4752 12.1476 9.99114 13.9506 10.8056 15.3609ZM19.6747 7.24146C21.3306 7.24146 22.6725 8.58531 22.6725 10.2407C22.6725 11.8954 21.3306 13.2386 19.6747 13.2386C18.0193 13.2386 16.6773 11.8955 16.6773 10.2407C16.6773 8.58531 18.0193 7.24146 19.6747 7.24146Z" fill="#FA486B"/>
</g>
<defs>
<clipPath id="clip0_3001_8684">
<rect width="39" height="39" fill="#FA486B"/>
</clipPath>
</defs>
</svg>
