<svg width="24" height="24" viewBox="-1 -1 24 24" fill="none" xmlns="http://www.w3.org/2000/svg">
<path fill-rule="evenodd" clip-rule="evenodd" d="M18.7913 11C18.7913 15.3032 15.3029 18.7917 10.9997 18.7917C6.69646 18.7917 3.20801 15.3032 3.20801 11C3.20801 6.69678 6.69646 3.20833 10.9997 3.20833C15.3029 3.20833 18.7913 6.69678 18.7913 11ZM20.1663 11C20.1663 16.0626 16.0622 20.1667 10.9997 20.1667C5.93706 20.1667 1.83301 16.0626 1.83301 11C1.83301 5.93738 5.93706 1.83333 10.9997 1.83333C16.0622 1.83333 20.1663 5.93738 20.1663 11ZM10.3122 6.44469V10.6924C10.3122 11.3663 10.582 12.0122 11.0615 12.4857L12.8082 14.2111L13.7745 13.2328L12.0278 11.5076C11.8098 11.2922 11.6872 10.9986 11.6872 10.6924V6.44469H10.3122Z" fill="#FA486B"/>
</svg>
