<svg width="24" height="24" viewBox="-1 -1 24 24" fill="none" xmlns="http://www.w3.org/2000/svg">
<path fill-rule="evenodd" clip-rule="evenodd" d="M16.9587 8.6924C16.9587 10.2263 16.7234 11.297 15.8944 12.6765C15.0426 14.0943 13.5699 15.8274 11.0034 18.5797C8.43351 15.8272 6.95941 14.0939 6.1068 12.6762C5.27727 11.2968 5.04199 10.2262 5.04199 8.6924C5.04199 5.88843 7.64284 3.20831 11.0003 3.20831C14.3578 3.20831 16.9587 5.88843 16.9587 8.6924ZM18.3337 8.6924C18.3337 12.1844 17.1928 13.9845 11.6713 19.8786C11.311 20.2634 10.6966 20.2635 10.336 19.879C4.80792 13.9846 3.66699 12.1845 3.66699 8.6924C3.66699 5.06392 6.95024 1.83331 11.0003 1.83331C15.0504 1.83331 18.3337 5.06392 18.3337 8.6924ZM12.3753 9.16665C12.3753 9.92601 11.7597 10.5416 11.0003 10.5416C10.241 10.5416 9.62533 9.92601 9.62533 9.16665C9.62533 8.40725 10.241 7.79165 11.0003 7.79165C11.7597 7.79165 12.3753 8.40725 12.3753 9.16665ZM13.7503 9.16665C13.7503 10.6855 12.5192 11.9166 11.0003 11.9166C9.4815 11.9166 8.25033 10.6855 8.25033 9.16665C8.25033 7.64787 9.4815 6.41665 11.0003 6.41665C12.5192 6.41665 13.7503 7.64787 13.7503 9.16665Z" fill="#FA486B"/>
</svg>
