<svg width="24" height="24" viewBox="-1 -1 24 24" fill="none" xmlns="http://www.w3.org/2000/svg">
<path fill-rule="evenodd" clip-rule="evenodd" d="M3.47197 2.75085C3.46055 2.75028 3.44906 2.75 3.4375 2.75C3.05781 2.75 2.75 3.05781 2.75 3.4375V5.05781C2.75 12.8949 9.10547 19.2479 16.9423 19.2479H18.5629C18.9426 19.2479 19.2504 18.9401 19.2504 18.5604C19.2504 18.5485 19.2501 18.5367 19.2494 18.525V15.2531C19.2494 14.9689 19.0746 14.714 18.8094 14.6117L14.9142 13.1086C14.6833 13.0195 14.4223 13.0614 14.2309 13.2183L10.5986 16.1955C8.60252 15.0564 6.9421 13.3963 5.80276 11.4006L8.78153 7.76937C8.93863 7.57785 8.98057 7.31664 8.8913 7.08559L7.38657 3.1906C7.2842 2.92559 7.02937 2.75085 6.74527 2.75085H3.47197ZM5.13346 10.0485L7.46424 7.20719L6.27385 4.12585H4.125V5.05781C4.125 6.82813 4.48411 8.51462 5.13346 10.0485ZM16.9423 17.8729C15.1719 17.8729 13.4853 17.5139 11.9511 16.8647L14.7928 14.5356L17.8744 15.7247V17.8729H16.9423Z" fill="#FA486B"/>
</svg>
