<svg width="24" height="24" viewBox="-1 -1 24 24" fill="none" xmlns="http://www.w3.org/2000/svg">
<path fill-rule="evenodd" clip-rule="evenodd" d="M15.8824 17.0724C17.6562 15.6442 18.7913 13.4546 18.7913 11C18.7913 6.69678 15.3029 3.20833 10.9997 3.20833C6.69646 3.20833 3.20801 6.69678 3.20801 11C3.20801 13.4546 4.34308 15.6442 6.11699 17.0724C6.67686 14.8981 8.65066 13.2917 10.9997 13.2917C13.3487 13.2917 15.3225 14.8981 15.8824 17.0724ZM14.6399 17.8908C14.4214 16.0744 12.8749 14.6667 10.9997 14.6667C9.12441 14.6667 7.57795 16.0744 7.35944 17.8908C8.44592 18.466 9.68472 18.7917 10.9997 18.7917C12.3146 18.7917 13.5534 18.466 14.6399 17.8908ZM10.9997 20.1667C16.0622 20.1667 20.1663 16.0626 20.1663 11C20.1663 5.93738 16.0622 1.83333 10.9997 1.83333C5.93706 1.83333 1.83301 5.93738 1.83301 11C1.83301 16.0626 5.93706 20.1667 10.9997 20.1667ZM10.9997 10.5417C11.759 10.5417 12.3747 9.92603 12.3747 9.16666C12.3747 8.40727 11.759 7.79166 10.9997 7.79166C10.2403 7.79166 9.62467 8.40727 9.62467 9.16666C9.62467 9.92603 10.2403 10.5417 10.9997 10.5417ZM10.9997 11.9167C12.5185 11.9167 13.7497 10.6855 13.7497 9.16666C13.7497 7.64788 12.5185 6.41666 10.9997 6.41666C9.48085 6.41666 8.24967 7.64788 8.24967 9.16666C8.24967 10.6855 9.48085 11.9167 10.9997 11.9167Z" fill="#FA486B"/>
</svg>
