<svg width="24" height="24" viewBox="-1 -1 24 24" fill="none" xmlns="http://www.w3.org/2000/svg">
<path fill-rule="evenodd" clip-rule="evenodd" d="M3.20801 6.84957V15.5833C3.20801 16.3427 3.82361 16.9583 4.58301 16.9583H17.4163C18.1757 16.9583 18.7913 16.3427 18.7913 15.5833V6.84956L11.4632 13.5415C11.2007 13.7813 10.7986 13.7813 10.5361 13.5415L3.20801 6.84957ZM18.732 5.04166H3.26732L10.9997 12.1028L18.732 5.04166ZM1.83301 4.58333C1.83301 4.07707 2.24342 3.66666 2.74967 3.66666H19.2497C19.7559 3.66666 20.1663 4.07707 20.1663 4.58333V15.5833C20.1663 17.1022 18.9352 18.3333 17.4163 18.3333H4.58301C3.06423 18.3333 1.83301 17.1022 1.83301 15.5833V4.58333Z" fill="#FA486B"/>
</svg>
