<svg width="24" height="24" viewBox="-1 -1 24 24" fill="none" xmlns="http://www.w3.org/2000/svg">
<path fill-rule="evenodd" clip-rule="evenodd" d="M14.2083 5.95834V4.12501H7.79167V5.95834H6.41667V4.12501H5.5C4.74061 4.12501 4.125 4.74061 4.125 5.50001V7.34766H17.875V5.50001C17.875 4.74061 17.2594 4.12501 16.5 4.12501H15.5833V5.95834H14.2083ZM4.125 16.5V8.72266H17.875V13.75C17.875 13.7497 17.875 13.7503 17.875 13.75L13.5244 13.7508H13.0661C12.9395 13.7508 12.8369 13.8534 12.8369 13.98V14.4383L12.837 15.8154C12.837 16.9169 11.9736 17.8167 10.8866 17.875H5.5C4.74061 17.875 4.125 17.2594 4.125 16.5ZM10.9193 19.25H12.8333H13.75C16.3166 19.25 18.4725 17.492 19.0794 15.1146C19.1908 14.6782 19.25 14.221 19.25 13.75V5.50001C19.25 3.98123 18.0188 2.75001 16.5 2.75001H15.5833V0.916672H14.2083V2.75001H7.79167V0.916672H6.41667V2.75001H5.5C3.98122 2.75001 2.75 3.98123 2.75 5.50001V16.5C2.75 18.0188 3.98122 19.25 5.5 19.25H10.2755C10.2876 19.252 10.2999 19.253 10.3126 19.253H10.7745C10.823 19.253 10.8713 19.252 10.9193 19.25ZM13.527 17.875C13.9572 17.301 14.212 16.5879 14.212 15.8153L14.2119 15.355C14.2119 15.2284 14.3146 15.1258 14.4411 15.1258H17.64C17.0735 16.7275 15.5458 17.875 13.75 17.875H13.527Z" fill="#FA486B"/>
</svg>
