<svg width="24" height="24" viewBox="0.5 0 24 24" fill="none" xmlns="http://www.w3.org/2000/svg">
<path fill-rule="evenodd" clip-rule="evenodd" d="M19.2674 10.983L18.2907 11.3466V12.3887V18.0005C18.2907 18.829 17.6192 19.5005 16.7907 19.5005H15.7747V14C15.7747 12.8954 14.8793 12 13.7747 12H11.7747C10.6701 12 9.77466 12.8954 9.77466 14V19.5L8.76739 19.5005C7.93897 19.5005 7.26739 18.829 7.26739 18.0005V12.3887V11.3456L6.28944 10.9825L4.8205 10.4372L12.7768 4.61948L20.7295 10.4387L19.2674 10.983ZM22.1228 11.5205L19.7907 12.3887V18.0005C19.7907 19.6574 18.4476 21.0005 16.7907 21.0005H8.76739C7.11054 21.0005 5.76739 19.6574 5.76739 18.0005V12.3887L3.42685 11.5198C2.6798 11.2425 2.54138 10.2455 3.18463 9.77514L12.1867 3.19278C12.5383 2.93567 13.0159 2.93575 13.3674 3.19298L22.3644 9.77631C23.0071 10.2465 22.8691 11.2427 22.1228 11.5205ZM11.7747 13.5H13.7747C14.0508 13.5 14.2747 13.7239 14.2747 14V19.5H11.2747V14C11.2747 13.7239 11.4986 13.5 11.7747 13.5Z" fill="#FA486B"/>
</svg>
