<svg width="24" height="25" viewBox="0 0 24 25" fill="none" xmlns="http://www.w3.org/2000/svg">
<path fill-rule="evenodd" clip-rule="evenodd" d="M20.5 12.5C20.5 17.1944 16.6944 21 12 21C7.30558 21 3.5 17.1944 3.5 12.5C3.5 7.80558 7.30558 4 12 4C16.6944 4 20.5 7.80558 20.5 12.5ZM22 12.5C22 18.0228 17.5228 22.5 12 22.5C6.47715 22.5 2 18.0228 2 12.5C2 6.97715 6.47715 2.5 12 2.5C17.5228 2.5 22 6.97715 22 12.5Z" fill="#5C9A12"/>
<path fill-rule="evenodd" clip-rule="evenodd" d="M12.9659 8.848H11.0339V7H12.9659V8.848ZM12.502 10.5H10.5V12H11.502V16H10.5V17.5H11.502H13.002H14V16H13.002V11C13.002 10.7239 12.7781 10.5 12.502 10.5Z" fill="#5C9A12"/>
</svg>
