<svg width="42" height="42" viewBox="0 0 42 42" fill="none" xmlns="http://www.w3.org/2000/svg">
<path d="M21 0.0297852C16.8525 0.0297852 12.7981 1.25967 9.34958 3.5639C5.90105 5.86814 3.21324 9.14324 1.62606 12.975C0.0388713 16.8069 -0.376409 21.0233 0.432731 25.0911C1.24187 29.1589 3.23909 32.8954 6.17183 35.8282C9.10457 38.7609 12.8411 40.7581 16.9089 41.5673C20.9767 42.3764 25.1932 41.9611 29.025 40.3739C32.8568 38.7868 36.1319 36.099 38.4361 32.6504C40.7403 29.2019 41.9702 25.1475 41.9702 21C41.9702 15.4384 39.7609 10.1045 35.8282 6.17182C31.8955 2.23914 26.5617 0.0297852 21 0.0297852ZM19.0936 9.5617C19.0936 9.0561 19.2945 8.5712 19.652 8.21368C20.0095 7.85617 20.4944 7.65532 21 7.65532C21.5056 7.65532 21.9905 7.85617 22.348 8.21368C22.7055 8.5712 22.9064 9.0561 22.9064 9.5617V22.9064C22.9064 23.412 22.7055 23.8969 22.348 24.2544C21.9905 24.6119 21.5056 24.8128 21 24.8128C20.4944 24.8128 20.0095 24.6119 19.652 24.2544C19.2945 23.8969 19.0936 23.412 19.0936 22.9064V9.5617ZM21 34.3447C20.4344 34.3447 19.8816 34.177 19.4113 33.8628C18.9411 33.5485 18.5745 33.1019 18.3581 32.5794C18.1417 32.0569 18.085 31.4819 18.1954 30.9272C18.3057 30.3725 18.5781 29.863 18.978 29.4631C19.3779 29.0632 19.8874 28.7908 20.4421 28.6805C20.9968 28.5701 21.5718 28.6268 22.0943 28.8432C22.6168 29.0596 23.0634 29.4262 23.3777 29.8964C23.6919 30.3667 23.8596 30.9195 23.8596 31.4851C23.8596 32.2435 23.5583 32.9709 23.022 33.5071C22.4858 34.0434 21.7584 34.3447 21 34.3447Z" fill="white"/>
</svg>
