<svg width="32" height="32" viewBox="-4.5 1.5 32 32" fill="none" xmlns="http://www.w3.org/2000/svg">
<path fill-rule="evenodd" clip-rule="evenodd" d="M12.5523 31.6251C21.2109 22.248 23 19.3843 23 13.8288C23 8.05623 17.8513 2.91663 11.5 2.91663C5.14872 2.91663 0 8.05623 0 13.8288C0 19.3844 1.78918 22.2481 10.4582 31.6257C11.0238 32.2374 11.9872 32.2371 12.5523 31.6251ZM11.5 18.2291C13.4848 18.2291 15.0938 16.5968 15.0938 14.5833C15.0938 12.5698 13.4848 10.9375 11.5 10.9375C9.51524 10.9375 7.90625 12.5698 7.90625 14.5833C7.90625 16.5968 9.51524 18.2291 11.5 18.2291Z" fill="#FA486B"/>
</svg>
