<svg width="28" height="28" viewBox="0 0 28 28" fill="none" xmlns="http://www.w3.org/2000/svg">
<g clip-path="url(#clip0_2004_495)">
<path d="M27.75 14C27.75 6.54385 21.7062 0.5 14.25 0.5C6.79385 0.5 0.75 6.54385 0.75 14C0.75 21.4562 6.79385 27.5 14.25 27.5C21.7062 27.5 27.75 21.4562 27.75 14Z" fill="#F8604A"/>
<path d="M18.975 22.1229H16.2522V8.06002H14.8804C12.5397 8.06002 11.3704 9.23037 11.3704 10.9854C11.3704 12.9429 12.1575 13.9097 13.9125 15.08L15.2854 16.0479L11.3922 22.1H8.26538L11.9779 16.6325C9.83969 15.08 8.67038 13.7072 8.67038 11.165C8.67038 8.03718 10.8075 5.90002 14.925 5.90002H18.975V22.1229Z" fill="white"/>
</g>
<defs>
<clipPath id="clip0_2004_495">
<rect width="27" height="27" fill="white" transform="translate(0.75 0.5)"/>
</clipPath>
</defs>
</svg>
