<svg width="28" height="28" viewBox="0 0 28 28" fill="none" xmlns="http://www.w3.org/2000/svg">
<g clip-path="url(#clip0_2004_358)">
<path d="M23.1544 15.1565C22.7179 14.6053 22.8428 14.36 23.1544 13.8673C23.16 13.8616 26.7634 8.88238 27.1346 7.19375L27.1369 7.19262C27.3214 6.57725 27.1369 6.125 26.2448 6.125H23.2927C22.5413 6.125 22.1947 6.51312 22.0091 6.94737C22.0091 6.94737 20.5061 10.5451 18.3799 12.8773C17.6936 13.5511 17.3764 13.7671 17.0018 13.7671C16.8172 13.7671 16.5304 13.5511 16.5304 12.9358V7.19262C16.5304 6.45462 16.32 6.125 15.6979 6.125H11.0561C10.5848 6.125 10.3046 6.46925 10.3046 6.78988C10.3046 7.48963 11.3678 7.6505 11.478 9.61925V13.8909C11.478 14.8269 11.3081 14.999 10.9313 14.999C9.92775 14.999 7.49213 11.3866 6.04875 7.25225C5.75738 6.45012 5.47275 6.12612 4.71563 6.12612H1.7625C0.919875 6.12612 0.75 6.51425 0.75 6.9485C0.75 7.71575 1.7535 11.5306 5.4165 16.5706C7.85775 20.0109 11.2958 21.875 14.4233 21.875C16.3031 21.875 16.5326 21.461 16.5326 20.7489C16.5326 17.4616 16.3628 17.1511 17.3044 17.1511C17.7409 17.1511 18.4924 17.3671 20.2474 19.0265C22.2533 20.9941 22.5829 21.875 23.7056 21.875H26.6576C27.4991 21.875 27.9255 21.461 27.6803 20.6443C27.1189 18.9264 23.3254 15.3928 23.1544 15.1565Z" fill="#0077FF"/>
</g>
<defs>
<clipPath id="clip0_2004_358">
<rect width="27" height="27" fill="white" transform="translate(0.75 0.5)"/>
</clipPath>
</defs>
</svg>
