<svg width="24" height="28" viewBox="0 0 24 28" fill="none" xmlns="http://www.w3.org/2000/svg">
<g clip-path="url(#clip0_2004_325)">
<path d="M21.638 9.7043C21.4806 9.8258 18.7016 11.3837 18.7016 14.8478C18.7016 18.8546 22.2378 20.2721 22.3436 20.3072C22.3273 20.3936 21.7819 22.2485 20.4792 24.1385C19.3177 25.8017 18.1046 27.4622 16.2591 27.4622C14.4137 27.4622 13.9388 26.3957 11.8084 26.3957C9.73226 26.3957 8.99409 27.4973 7.30606 27.4973C5.61804 27.4973 4.44022 25.9583 3.08599 24.0683C1.51738 21.8489 0.25 18.401 0.25 15.1286C0.25 9.8798 3.68033 7.0961 7.05639 7.0961C8.85026 7.0961 10.3456 8.2679 11.4719 8.2679C12.5438 8.2679 14.2156 7.0259 16.2564 7.0259C17.0299 7.0259 19.8089 7.0961 21.638 9.7043ZM15.2876 4.8038C16.1316 3.8075 16.7286 2.4251 16.7286 1.0427C16.7286 0.851 16.7123 0.6566 16.6771 0.5C15.3038 0.5513 13.6701 1.4099 12.685 2.5466C11.9115 3.4214 11.1896 4.8038 11.1896 6.2051C11.1896 6.4157 11.2249 6.6263 11.2412 6.6938C11.328 6.71 11.4691 6.7289 11.6103 6.7289C12.8424 6.7289 14.392 5.9081 15.2876 4.8038Z" fill="black"/>
</g>
<defs>
<clipPath id="clip0_2004_325">
<rect width="23" height="27" fill="white" transform="translate(0.25 0.5)"/>
</clipPath>
</defs>
</svg>
