<svg width="28" height="28" viewBox="0 0 28 28" fill="none" xmlns="http://www.w3.org/2000/svg">
<path d="M25.63 14.2812C25.63 13.4038 25.5513 12.56 25.405 11.75H13.75V16.5425H20.41C20.1175 18.0838 19.24 19.3887 17.9237 20.2662V23.3825H21.94C24.28 21.2225 25.63 18.05 25.63 14.2812Z" fill="#4285F4"/>
<path d="M13.7499 26.375C17.0911 26.375 19.8924 25.2725 21.9399 23.3825L17.9236 20.2662C16.8211 21.0087 15.4149 21.4587 13.7499 21.4587C10.5324 21.4587 7.79864 19.2875 6.81989 16.3625H2.70239V19.5575C4.73864 23.5962 8.91239 26.375 13.7499 26.375Z" fill="#34A853"/>
<path d="M6.82 16.3512C6.5725 15.6087 6.42625 14.8212 6.42625 14C6.42625 13.1787 6.5725 12.3912 6.82 11.6487V8.45374H2.7025C1.85875 10.1187 1.375 11.9975 1.375 14C1.375 16.0025 1.85875 17.8812 2.7025 19.5462L5.90875 17.0487L6.82 16.3512Z" fill="#FBBC05"/>
<path d="M13.7499 6.5525C15.5724 6.5525 17.1924 7.1825 18.4861 8.3975L22.0299 4.85375C19.8811 2.85125 17.0911 1.625 13.7499 1.625C8.91239 1.625 4.73864 4.40375 2.70239 8.45375L6.81989 11.6488C7.79864 8.72375 10.5324 6.5525 13.7499 6.5525Z" fill="#EA4335"/>
</svg>
