<svg width="61" height="60" viewBox="0 0 61 60" fill="none" xmlns="http://www.w3.org/2000/svg">
<path d="M33.889 37.3519C35.5952 36.9633 37.2377 36.2878 38.7495 35.3375C39.8939 34.6154 40.2403 33.1037 39.518 31.9551C38.7959 30.8065 37.2842 30.4601 36.1356 31.1822C32.7067 33.3401 28.2938 33.3359 24.8649 31.1822C23.7164 30.4601 22.2045 30.8065 21.4824 31.9551C20.7603 33.0995 21.1066 34.6154 22.251 35.3375C23.7627 36.2878 25.4054 36.9633 27.1114 37.3519L22.4368 42.0307C21.4783 42.9893 21.4783 44.539 22.4368 45.4978C22.9182 45.9748 23.5432 46.2155 24.1681 46.2155C24.7973 46.2155 25.4223 45.9748 25.9038 45.4978L30.5025 40.899L35.101 45.4978C36.0596 46.4563 37.6094 46.4563 38.5679 45.4978C39.5266 44.539 39.5266 42.985 38.5679 42.0307L33.889 37.3519ZM30.5025 18.6911C32.4153 18.6911 33.9693 20.2451 33.9693 22.1581C33.9693 24.0668 32.4153 25.6208 30.5025 25.6208C28.5936 25.6208 27.0354 24.0668 27.0354 22.1581C27.0354 20.2451 28.5936 18.6911 30.5025 18.6911ZM30.5025 30.5235C35.1179 30.5235 38.872 26.7695 38.872 22.158C38.872 17.5383 35.1179 13.7842 30.5025 13.7842C25.8868 13.7842 22.1328 17.5383 22.1328 22.1538C22.1328 26.7695 25.8868 30.5235 30.5025 30.5235Z" fill="#F77300"/>
</svg>
