<svg width="24" height="24" viewBox="-2 -2 24 24" fill="none" xmlns="http://www.w3.org/2000/svg">
<path d="M11.6945 13.6764C12.5476 13.4821 13.3688 13.1444 14.1248 12.6692C14.697 12.3082 14.8701 11.5523 14.509 10.978C14.148 10.4037 13.3921 10.2306 12.8178 10.5916C11.1034 11.6706 8.8969 11.6684 7.18246 10.5916C6.60818 10.2306 5.85227 10.4037 5.49122 10.978C5.13017 11.5502 5.3033 12.3082 5.8755 12.6692C6.63137 13.1444 7.45272 13.4821 8.30572 13.6764L5.9684 16.0159C5.48913 16.4951 5.48913 17.27 5.9684 17.7494C6.2091 17.9879 6.52158 18.1082 6.83407 18.1082C7.14867 18.1082 7.46116 17.9879 7.70188 17.7494L10.0012 15.45L12.3005 17.7494C12.7798 18.2286 13.5547 18.2286 14.034 17.7494C14.5133 17.27 14.5133 16.493 14.034 16.0159L11.6945 13.6764ZM10.0012 4.34604C10.9577 4.34604 11.7347 5.12305 11.7347 6.07952C11.7347 7.03388 10.9577 7.81088 10.0012 7.81088C9.04682 7.81088 8.26772 7.03388 8.26772 6.07952C8.26772 5.12305 9.04682 4.34604 10.0012 4.34604ZM10.0012 10.2623C12.309 10.2623 14.186 8.38523 14.186 6.0795C14.186 3.76963 12.309 1.89258 10.0012 1.89258C7.69342 1.89258 5.8164 3.76963 5.8164 6.07741C5.8164 8.38523 7.69342 10.2623 10.0012 10.2623Z" fill="#FA486B"/>
</svg>
