<svg width="37" height="37" viewBox="0 0 37 37" fill="none" xmlns="http://www.w3.org/2000/svg">
<path fill-rule="evenodd" clip-rule="evenodd" d="M23.8718 7.71614C23.8718 8.57628 23.1771 9.26559 22.3301 9.26559C21.4829 9.26559 20.7884 8.57628 20.7884 7.71614C20.7884 6.856 21.4829 6.16669 22.3301 6.16669C23.1771 6.16669 23.8718 6.856 23.8718 7.71614ZM26.1843 7.71614C26.1843 9.84903 24.4587 11.5781 22.3301 11.5781C22.2351 11.5781 22.1411 11.5747 22.048 11.5679L21.3402 13.8259C21.4338 13.9684 21.5839 14.143 21.8141 14.3321C22.1932 14.6434 22.7292 14.9426 23.3943 15.1539C24.7172 15.5741 26.4838 15.6254 28.3777 14.8121L29.2902 16.9369C26.8675 17.9774 24.5274 17.9402 22.6942 17.3578C21.8673 17.0953 21.1294 16.7171 20.5288 16.2629L19.5071 19.2937C22.144 20.4871 23.7702 22.2193 24.3528 24.5625C24.9699 27.0436 24.3418 29.9548 23.0915 33.1443L20.9386 32.3002C22.1472 29.2166 22.5451 26.8759 22.1087 25.1206C21.7008 23.4807 20.4946 22.106 17.7993 21.0886C17.1678 20.8503 16.7815 20.14 17.0169 19.442L19.0072 13.5377L19.8938 10.7088C19.0283 10.0006 18.4759 8.92303 18.4759 7.71614C18.4759 5.58324 20.2014 3.85419 22.3301 3.85419C24.4587 3.85419 26.1843 5.58324 26.1843 7.71614ZM15.8082 22.8509C15.233 24.4217 14.4697 25.5061 13.4783 26.0104C12.5361 26.4896 11.0829 26.5933 8.75008 25.4967L7.76633 27.5895C10.4658 28.8585 12.7162 28.9923 14.5266 28.0716C16.288 27.1759 17.3265 25.4301 17.9797 23.6459L15.8082 22.8509ZM12.1697 11.769C13.842 11.4175 15.5887 11.678 17.2827 12.222L16.5757 14.4238C15.0911 13.947 13.7789 13.7938 12.6453 14.0321C11.5484 14.2626 10.5116 14.8812 9.58112 16.1664L7.70801 14.8103C8.94435 13.1026 10.4606 12.1282 12.1697 11.769Z" fill="#FA486B"/>
</svg>
