<svg width="37" height="37" viewBox="0 0 37 37" fill="none" xmlns="http://www.w3.org/2000/svg">
<path fill-rule="evenodd" clip-rule="evenodd" d="M30.833 6.9375H33.9163V4.625H3.08301V6.9375H6.19042V31.2188C6.19042 31.6273 6.40606 32.0055 6.75765 32.2137C7.10924 32.4219 7.54456 32.429 7.90278 32.2324L11.4904 30.2645L14.2296 32.1681C14.6127 32.4345 15.1185 32.4444 15.5118 32.1932L18.5106 30.278L21.5107 32.1932C21.9038 32.4444 22.4093 32.4345 22.7926 32.1683L25.5329 30.2643L29.1207 32.2324C29.4788 32.429 29.9142 32.4219 30.2658 32.2137C30.6173 32.0055 30.833 31.6273 30.833 31.2188V6.9375ZM28.5205 6.9375H8.50292V29.2656L11.0061 27.8924C11.3908 27.6814 11.8618 27.7064 12.2221 27.9567L14.9166 29.8296L17.8883 27.9318C18.2677 27.6894 18.7533 27.6894 19.1327 27.9316L22.1056 29.8296L24.8015 27.9566C25.1618 27.7064 25.6328 27.6815 26.0173 27.8924L28.5205 29.2656V6.9375ZM12.333 14.6458H24.6663V12.3333H12.333V14.6458ZM18.4997 20.8125H12.333V18.5H18.4997V20.8125Z" fill="#FA486B"/>
</svg>
