<svg width="37" height="37" viewBox="0 0 37 37" fill="none" xmlns="http://www.w3.org/2000/svg">
<path fill-rule="evenodd" clip-rule="evenodd" d="M27.75 20.8125C26.4729 20.8125 25.4375 19.7771 25.4375 18.5C25.4375 17.2229 26.4729 16.1875 27.75 16.1875C29.0271 16.1875 30.0625 17.2229 30.0625 18.5C30.0625 19.7771 29.0271 20.8125 27.75 20.8125ZM18.5 20.8125C17.2229 20.8125 16.1875 19.7771 16.1875 18.5C16.1875 17.2229 17.2229 16.1875 18.5 16.1875C19.7771 16.1875 20.8125 17.2229 20.8125 18.5C20.8125 19.7771 19.7771 20.8125 18.5 20.8125ZM6.9375 18.5C6.9375 19.7771 7.97284 20.8125 9.25 20.8125C10.5272 20.8125 11.5625 19.7771 11.5625 18.5C11.5625 17.2229 10.5272 16.1875 9.25 16.1875C7.97284 16.1875 6.9375 17.2229 6.9375 18.5Z" fill="#FA486B"/>
</svg>
