<svg width="37" height="37" viewBox="0 0 37 37" fill="none" xmlns="http://www.w3.org/2000/svg">
<path fill-rule="evenodd" clip-rule="evenodd" d="M21.5946 6.16669H22.7508H27.3641C30.1348 6.16669 32.381 8.41282 32.381 11.1835C32.3809 13.9542 30.1348 16.2003 27.3641 16.2003H23.9071V17.7267H27.75V20.0392H23.9071V21.5835H21.5946V20.0392H20.0417V17.7267H21.5946V16.2003H20.0595V13.8878H21.5946V7.32292V6.16669ZM23.9071 13.8878H27.3641C28.8577 13.8878 30.0684 12.677 30.0685 11.1835C30.0685 9.68995 28.8577 8.47919 27.3641 8.47919H23.9071V13.8878ZM9.25 7.70835H16.9583V10.0209H9.25C7.97284 10.0209 6.9375 11.0562 6.9375 12.3334V13.875H16.9583V16.1875H6.9375V24.6667C6.9375 25.9438 7.97284 26.9792 9.25 26.9792H27.75C29.0271 26.9792 30.0625 25.9438 30.0625 24.6667V21.5834H32.375V24.6667C32.375 27.2211 30.3044 29.2917 27.75 29.2917H9.25C6.69569 29.2917 4.625 27.2211 4.625 24.6667V12.3334C4.625 9.77904 6.69569 7.70835 9.25 7.70835Z" fill="#FA486B"/>
</svg>
