<svg width="37" height="37" viewBox="0 0 37 37" fill="none" xmlns="http://www.w3.org/2000/svg">
<path fill-rule="evenodd" clip-rule="evenodd" d="M28.5212 14.6191C28.5212 17.1988 28.1254 18.9995 26.7313 21.3195C25.2986 23.704 22.8219 26.6189 18.5054 31.2477C14.1834 26.6186 11.7042 23.7034 10.2703 21.3191C8.87519 18.9992 8.47949 17.1987 8.47949 14.6191C8.47949 9.90328 12.8536 5.39581 18.5003 5.39581C24.147 5.39581 28.5212 9.90328 28.5212 14.6191ZM30.8337 14.6191C30.8337 20.492 28.9149 23.5193 19.6288 33.4323C19.0228 34.0793 17.9896 34.0796 17.3831 33.4329C8.08583 23.5195 6.16699 20.4921 6.16699 14.6191C6.16699 8.51661 11.6888 3.08331 18.5003 3.08331C25.3119 3.08331 30.8337 8.51661 30.8337 14.6191ZM20.8128 15.4166C20.8128 16.6938 19.7774 17.7291 18.5003 17.7291C17.2232 17.7291 16.1878 16.6938 16.1878 15.4166C16.1878 14.1395 17.2232 13.1041 18.5003 13.1041C19.7774 13.1041 20.8128 14.1395 20.8128 15.4166ZM23.1253 15.4166C23.1253 17.971 21.0547 20.0416 18.5003 20.0416C15.9459 20.0416 13.8753 17.971 13.8753 15.4166C13.8753 12.8623 15.9459 10.7916 18.5003 10.7916C21.0547 10.7916 23.1253 12.8623 23.1253 15.4166Z" fill="#FA486B"/>
</svg>
