<svg width="24" height="25" viewBox="0 0 24 25" fill="none" xmlns="http://www.w3.org/2000/svg">
<path fill-rule="evenodd" clip-rule="evenodd" d="M3.5 12.5C3.5 17.1944 7.30558 21 12 21C16.6944 21 20.5 17.1944 20.5 12.5C20.5 7.80558 16.6944 4 12 4C7.30558 4 3.5 7.80558 3.5 12.5ZM12 2.5C6.47715 2.5 2 6.97715 2 12.5C2 18.0228 6.47715 22.5 12 22.5C17.5228 22.5 22 18.0228 22 12.5C22 6.97715 17.5228 2.5 12 2.5ZM12.75 11.75H17V13.25H12.75V17.5H11.25V13.25H7V11.75H11.25V7.5H12.75V11.75Z" fill="#5C9A12"/>
</svg>
