<svg width="24" height="24" viewBox="0 0 24 24" fill="none" xmlns="http://www.w3.org/2000/svg">
<path fill-rule="evenodd" clip-rule="evenodd" d="M5.5 8.92746V4.75411C7.48103 5.16255 9.6856 5.38777 12.0001 5.38777C14.3145 5.38777 16.519 5.16255 18.5 4.75414V8.90525L18.4998 8.92754C18.4998 14.0074 15.6511 18.1057 11.9999 19.4421C8.3487 18.1057 5.5 14.0073 5.5 8.92746ZM4.64184 3.01654C4.31939 2.93348 4 3.17355 4 3.50652V8.92746C4 14.6855 7.32861 19.5338 11.8559 20.9779C11.9496 21.0078 12.0503 21.0078 12.1439 20.9779C16.6712 19.5338 19.9998 14.6859 19.9998 8.92784L20 3.50655C20 3.17358 19.6806 2.93351 19.3582 3.01656C17.2114 3.56949 14.6932 3.88777 12.0001 3.88777C9.30691 3.88777 6.7886 3.56948 4.64184 3.01654ZM12.0465 13.808L16.5011 9.80804L15.4989 8.69196L11.5455 12.242L9.50109 10.4062L8.49891 11.5223L11.0444 13.808C11.3294 14.064 11.7615 14.064 12.0465 13.808Z" fill="#5C9A12"/>
</svg>
