<svg width="24" height="25" viewBox="0 0 24 25" fill="none" xmlns="http://www.w3.org/2000/svg">
<path fill-rule="evenodd" clip-rule="evenodd" d="M8 6.5H4C3.44772 6.5 3 6.94772 3 7.5V21.5C3 22.0523 3.44772 22.5 4 22.5H15C15.5523 22.5 16 22.0523 16 21.5V18.5H20C20.5523 18.5 21 18.0523 21 17.5V5.5C21 3.84315 19.6569 2.5 18 2.5H9C8.44772 2.5 8 2.94772 8 3.5V6.5ZM9.5 6.5H13C14.6569 6.5 16 7.84315 16 9.5V17H19.5V5.5C19.5 4.67157 18.8284 4 18 4H9.5V6.5ZM4.5 21V8H13C13.8284 8 14.5 8.67157 14.5 9.5V21H4.5Z" fill="#12919A"/>
</svg>
