<svg width="18" height="18" viewBox="0 0 18 18" fill="none" xmlns="http://www.w3.org/2000/svg">
<path fill-rule="evenodd" clip-rule="evenodd" d="M15.375 9C15.375 12.5208 12.5208 15.375 9 15.375C5.47919 15.375 2.625 12.5208 2.625 9C2.625 5.47919 5.47919 2.625 9 2.625C12.5208 2.625 15.375 5.47919 15.375 9ZM16.5 9C16.5 13.1421 13.1421 16.5 9 16.5C4.85786 16.5 1.5 13.1421 1.5 9C1.5 4.85786 4.85786 1.5 9 1.5C13.1421 1.5 16.5 4.85786 16.5 9ZM8.29575 11.6778L13.1708 6.88261L12.3292 6.0271L7.87852 10.405L6.04928 8.57573L5.20076 9.42427L7.45075 11.6743C7.68367 11.9072 8.06093 11.9088 8.29575 11.6778Z" fill="#5C9A12"/>
</svg>
