<svg width="25" height="24" viewBox="0 0 25 24" fill="none" xmlns="http://www.w3.org/2000/svg">
<path fill-rule="evenodd" clip-rule="evenodd" d="M8.49782 5.33184C8.70421 3.9903 9.85852 3 11.2158 3H13.7842C15.1415 3 16.2958 3.99031 16.5022 5.33184L16.605 5.99996H17.9955H19.5L20.5 6V7.5H19.3833L18.5486 18.2326C18.4271 19.7945 17.1242 21 15.5576 21H9.44239C7.87576 21 6.57291 19.7945 6.45143 18.2326L5.61667 7.5H4.5V6H5.5L7.00453 5.99996H8.39503L8.49782 5.33184ZM15.0873 5.99996H9.91268L9.98037 5.55993C10.0742 4.95014 10.5989 4.5 11.2158 4.5H13.7842C14.4011 4.5 14.9258 4.95014 15.0196 5.55993L15.0873 5.99996ZM7.1212 7.5L7.94691 18.1163C8.00765 18.8972 8.65908 19.5 9.44239 19.5H15.5576C16.3409 19.5 16.9923 18.8972 17.0531 18.1163L17.8788 7.5H7.1212Z" fill="white"/>
</svg>
