<svg width="61" height="60" viewBox="0 0 61 60" fill="none" xmlns="http://www.w3.org/2000/svg">
<path d="M47.2408 38.8366C46.762 37.9749 44.1588 35.192 43.5984 34.6583C42.8356 33.9317 41.3177 32.8749 41.8326 31.6309C41.9811 31.2473 42.5391 30.4368 43.5053 29.1987C44.0133 28.5424 44.4158 28.0165 44.7131 27.6203C46.8567 24.7728 47.5845 22.6206 47.4046 22.1584C47.2248 21.6962 46.6378 21.6229 45.7803 21.6229L40.2724 21.6599C39.5338 21.6599 39.2683 21.9311 39.1019 22.3472C38.5191 23.8451 37.8567 25.2379 37.1132 26.5253C36.6547 27.293 36.2336 27.9583 35.8491 28.5216C35.4651 29.0847 35.1431 29.4996 34.8831 29.7656C34.004 30.6643 32.9534 30.9828 32.7457 29.3569C32.7088 29.0658 32.687 28.8153 32.6806 28.6048C32.6748 28.3945 32.6776 28.0971 32.69 27.7134C32.703 27.3294 32.7088 27.0697 32.7088 26.9335C32.7088 26.463 32.7179 25.9524 32.7364 25.4015C32.7551 24.8506 32.7703 24.4141 32.783 24.0925C32.7956 23.7706 32.8014 23.4301 32.8014 23.071C32.8014 22.712 32.7796 22.4304 32.7364 22.2261C32.6936 22.022 32.6281 21.8239 32.5417 21.6318C32.4549 21.4399 32.3276 21.2915 32.1607 21.1862C31.9936 21.0809 31.7857 20.9974 31.5382 20.9354C30.8814 20.7869 30.0452 20.7066 29.0291 20.694C26.7247 20.6693 25.2441 20.818 24.5874 21.1399C24.3272 21.2759 24.0918 21.4617 23.8813 21.6968C23.6582 21.9692 23.6271 22.1179 23.7881 22.1424C25.0022 22.3241 25.5064 22.9199 25.7397 24.018C26.097 25.7025 25.9936 27.5085 25.7303 29.1987C25.5813 30.1553 25.1039 31.1574 24.0298 30.4056C23.7821 30.2323 23.525 29.9941 23.2586 29.6907C22.9922 29.3873 22.6917 28.9632 22.3571 28.4187C21.2135 26.556 20.2153 24.545 19.4024 22.5133C19.1994 21.9802 18.6348 21.5849 18.1387 21.5849L13.0466 21.6219C12.5262 21.6219 12.1731 21.7397 11.9872 21.9749L11.9128 22.0862C11.8757 22.1482 11.8569 22.2472 11.8569 22.3834C11.8569 22.5196 11.8941 22.6868 11.9685 22.8847C12.7119 24.6304 13.5202 26.314 14.3937 27.9357C15.2671 29.5574 16.026 30.8637 16.6701 31.8536C17.3144 32.8441 17.971 33.7789 18.6401 34.6575C19.3092 35.5366 19.7521 36.1 19.9688 36.3474C20.1857 36.5954 20.3561 36.7807 20.48 36.9044L20.9447 37.3501C21.2421 37.6473 21.6787 38.0031 22.2548 38.4177C22.8311 38.8327 23.4691 39.2412 24.1691 39.6438C24.8692 40.0458 25.6837 40.3739 26.613 40.6277C27.5422 40.8816 28.4466 40.9835 29.3263 40.9343H31.4636C31.8971 40.897 32.2254 40.7608 32.4486 40.5257L32.5225 40.4326C32.5723 40.3588 32.6188 40.244 32.6618 40.0895C32.7053 39.9348 32.7268 39.7643 32.7268 39.5788C32.7142 39.0466 32.7547 38.5669 32.8475 38.14C32.9401 37.713 33.0457 37.3911 33.1637 37.1743C33.6046 36.3653 34.2337 35.9704 35.0782 36.5804C35.4808 36.8714 35.8585 37.2306 36.2119 37.6575C36.5651 38.0848 36.9893 38.5643 37.4848 39.0965C38.2128 39.8782 39.2432 40.9165 40.3983 40.9165C41.4953 40.9165 44.1449 40.9629 45.922 40.9351C46.864 40.9351 47.3834 40.5628 47.483 40.1923C47.6002 39.7549 47.4727 39.2198 47.2408 38.8366Z" fill="#0173F7"/>
</svg>
