<svg width="24" height="24" viewBox="-1.5 -1.5 24 24" fill="none" xmlns="http://www.w3.org/2000/svg">
<path d="M19.3704 14.4183C19.131 13.9874 17.8294 12.596 17.5492 12.3292C17.1678 11.9658 16.4089 11.4374 16.6663 10.8155C16.7406 10.6236 17.0196 10.2184 17.5026 9.59933C17.7567 9.27119 17.9579 9.00825 18.1065 8.81017C19.1783 7.38642 19.5422 6.31031 19.4523 6.0792C19.3624 5.8481 19.0689 5.81145 18.6401 5.81145L15.8862 5.82993C15.5169 5.82993 15.3842 5.96553 15.301 6.1736C15.0096 6.92257 14.6783 7.61894 14.3066 8.26264C14.0774 8.64648 13.8668 8.97914 13.6746 9.26082C13.4826 9.54233 13.3215 9.74982 13.1916 9.88279C12.752 10.3321 12.2267 10.4914 12.1228 9.67846C12.1044 9.53292 12.0935 9.40765 12.0903 9.30241C12.0874 9.19725 12.0888 9.04855 12.095 8.85671C12.1015 8.66472 12.1044 8.53484 12.1044 8.46674C12.1044 8.23149 12.109 7.97618 12.1182 7.70073C12.1275 7.42528 12.1352 7.20703 12.1415 7.04625C12.1478 6.88531 12.1507 6.71503 12.1507 6.53552C12.1507 6.356 12.1398 6.21522 12.1182 6.11305C12.0968 6.011 12.064 5.91194 12.0208 5.81591C11.9775 5.71997 11.9138 5.64576 11.8304 5.59308C11.7468 5.54046 11.6428 5.4987 11.5191 5.46768C11.1907 5.39343 10.7726 5.35328 10.2645 5.34702C9.11237 5.33467 8.37204 5.40901 8.04371 5.56996C7.91362 5.63796 7.79591 5.73087 7.69065 5.8484C7.57911 5.98462 7.56355 6.05896 7.64407 6.07119C8.2511 6.16205 8.50321 6.45997 8.61984 7.00902C8.7985 7.85127 8.74678 8.75425 8.61516 9.59933C8.54067 10.0776 8.30194 10.5787 7.76488 10.2028C7.64105 10.1161 7.51252 9.99703 7.37931 9.84533C7.24609 9.69363 7.09587 9.4816 6.92854 9.20933C6.35677 8.278 5.85766 7.27248 5.4512 6.25666C5.34969 5.99012 5.0674 5.79246 4.81935 5.79246L2.27328 5.81093C2.0131 5.81093 1.83657 5.86983 1.74362 5.98745L1.70642 6.0431C1.68784 6.07409 1.67847 6.12359 1.67847 6.19171C1.67847 6.25981 1.69705 6.34339 1.73425 6.44235C2.10593 7.31519 2.51012 8.15699 2.94683 8.96787C3.38354 9.77868 3.76302 10.4319 4.08507 10.9268C4.40718 11.422 4.73551 11.8895 5.07005 12.3288C5.4046 12.7683 5.62604 13.05 5.73439 13.1737C5.84286 13.2977 5.92807 13.3904 5.99 13.4522L6.22236 13.675C6.37103 13.8237 6.58935 14.0015 6.87741 14.2089C7.16555 14.4164 7.48453 14.6206 7.83453 14.8219C8.1846 15.0229 8.59185 15.187 9.05651 15.3138C9.5211 15.4408 9.97329 15.4917 10.4132 15.4672H11.4818C11.6985 15.4485 11.8627 15.3804 11.9743 15.2628L12.0113 15.2163C12.0362 15.1794 12.0594 15.122 12.0809 15.0447C12.1026 14.9674 12.1134 14.8822 12.1134 14.7894C12.1071 14.5233 12.1274 14.2835 12.1737 14.07C12.22 13.8565 12.2728 13.6955 12.3319 13.5871C12.5523 13.1826 12.8668 12.9852 13.2891 13.2902C13.4904 13.4357 13.6793 13.6153 13.8559 13.8288C14.0325 14.0424 14.2446 14.2822 14.4924 14.5483C14.8564 14.9391 15.3716 15.4582 15.9491 15.4582C16.4976 15.4582 17.8224 15.4814 18.711 15.4676C19.182 15.4676 19.4417 15.2814 19.4915 15.0961C19.5501 14.8775 19.4864 14.6099 19.3704 14.4183Z" fill="#FA486B"/>
</svg>
