<svg width="60" height="60" viewBox="0 0 60 60" fill="none" xmlns="http://www.w3.org/2000/svg">
<path fill-rule="evenodd" clip-rule="evenodd" d="M21.471 36.5385L21.7413 35.5369L21.2056 34.6486C20.1026 32.8196 19.4674 30.6771 19.4674 28.3788C19.4674 21.6618 24.9126 16.2166 31.6296 16.2166C38.3466 16.2166 43.7917 21.6618 43.7917 28.3788C43.7917 35.0957 38.3466 40.5409 31.6296 40.5409C29.9792 40.5409 28.4113 40.2135 26.9829 39.6225L26.1413 39.2741L25.278 39.5642L20.1935 41.2728L21.471 36.5385ZM19.4284 44.0959L19.4319 44.0947L26.0528 41.87C27.7709 42.5809 29.6544 42.9734 31.6296 42.9734C39.69 42.9734 46.2241 36.4392 46.2241 28.3788C46.2241 20.3184 39.69 13.7842 31.6296 13.7842C23.5692 13.7842 17.035 20.3184 17.035 28.3788C17.035 31.132 17.7974 33.7073 19.1226 35.9047L17.4228 42.2037L17.4218 42.2075L17.3729 42.3886L17.0559 43.5635C16.8872 44.1886 17.4832 44.7495 18.0969 44.5433L19.2505 44.1557L19.4284 44.0959ZM29.2845 24.675C29.0393 23.2229 28.0095 21.134 27.7398 21.083C25.4515 20.6508 23.8422 22.9787 24.3316 25.2304C24.8465 27.5996 26.0492 29.8668 28.3785 32.083C30.7078 34.2995 33.2846 35.6255 35.2461 35.6255C37.2076 35.6255 39.2958 34.3621 38.7501 31.9421C38.3823 31.6363 36.4943 30.3763 35.7833 30.2488C35.1634 30.1379 34.7671 30.6852 34.4319 31.148C34.3826 31.2161 34.3347 31.2823 34.2876 31.3444C33.9198 31.8283 33.6256 32.083 33.3068 32.083C32.9882 32.083 31.7131 31.5735 30.2174 30.0961C28.7218 28.6185 27.9165 27.5025 28.2068 26.9372C28.2679 26.8185 28.3844 26.6688 28.5194 26.4954C28.8903 26.0192 29.4008 25.3637 29.2845 24.675Z" fill="#01B637"/>
</svg>
