<svg width="26" height="26" viewBox="0 0 26 26" fill="none" xmlns="http://www.w3.org/2000/svg">
<path fill-rule="evenodd" clip-rule="evenodd" d="M7.59856 17.1408L7.76973 16.5065L7.43046 15.9439C6.73189 14.7855 6.32964 13.4286 6.32964 11.973C6.32964 7.71889 9.77825 4.27028 14.0323 4.27028C18.2865 4.27028 21.735 7.71889 21.735 11.973C21.735 16.227 18.2865 19.6757 14.0323 19.6757C12.9871 19.6757 11.9941 19.4683 11.0894 19.094L10.5564 18.8734L10.0096 19.0571L6.78945 20.1392L7.59856 17.1408ZM6.30489 21.9271L6.30716 21.9264L10.5003 20.5174C11.5885 20.9677 12.7814 21.2162 14.0323 21.2162C19.1372 21.2162 23.2755 17.0779 23.2755 11.973C23.2755 6.86808 19.1372 2.72974 14.0323 2.72974C8.92744 2.72974 4.7891 6.86808 4.7891 11.973C4.7891 13.7167 5.27194 15.3477 6.11122 16.7394L5.03468 20.7288L5.03406 20.7312L5.00309 20.8459L4.80231 21.59C4.69546 21.9859 5.07293 22.3411 5.46165 22.2105L6.19221 21.965L6.30489 21.9271ZM12.5471 9.62724C12.3918 8.7076 11.7396 7.3846 11.5688 7.35233C10.1195 7.07857 9.10034 8.55293 9.41028 9.97901C9.73638 11.4795 10.4981 12.9154 11.9733 14.319C13.4485 15.7228 15.0805 16.5626 16.3228 16.5626C17.5651 16.5626 18.8876 15.7624 18.542 14.2298C18.3091 14.0361 17.1133 13.2381 16.663 13.1573C16.2704 13.0871 16.0194 13.4337 15.8071 13.7268C15.7759 13.77 15.7456 13.8119 15.7157 13.8512C15.4828 14.1577 15.2965 14.319 15.0946 14.319C14.8928 14.319 14.0852 13.9963 13.138 13.0606C12.1907 12.1248 11.6807 11.418 11.8646 11.06C11.9032 10.9848 11.977 10.89 12.0626 10.7802C12.2975 10.4786 12.6208 10.0634 12.5471 9.62724Z" fill="#01B637"/>
</svg>
