<svg width="34" height="34" viewBox="0 0 34 34" fill="none" xmlns="http://www.w3.org/2000/svg">
<path fill-rule="evenodd" clip-rule="evenodd" d="M15.1944 26.9306C21.6762 26.9306 26.9306 21.6762 26.9306 15.1944C26.9306 8.71277 21.6762 3.45833 15.1944 3.45833C8.71277 3.45833 3.45833 8.71277 3.45833 15.1944C3.45833 21.6762 8.71277 26.9306 15.1944 26.9306ZM15.1944 29.6389C18.6956 29.6389 21.9057 28.3932 24.406 26.321L31.3332 33.2484L33.2484 31.3332L26.321 24.406C28.3932 21.9057 29.6389 18.6956 29.6389 15.1944C29.6389 7.21699 23.1719 0.75 15.1944 0.75C7.21699 0.75 0.75 7.21699 0.75 15.1944C0.75 23.1719 7.21699 29.6389 15.1944 29.6389ZM13.8403 21.5139V16.5486H8.875V13.8403H13.8403V8.875H16.5486V13.8403H21.5139V16.5486H16.5486V21.5139H13.8403Z" fill="#fff"/>
</svg>
